<?xml version="1.0" encoding="UTF-8"?>
<!DOCTYPE svg PUBLIC "-//W3C//DTD SVG 1.1//EN" "http://www.w3.org/Graphics/SVG/1.1/DTD/svg11.dtd">
<!-- Creator: CorelDRAW 2019 (64-Bit) -->
<svg xmlns="http://www.w3.org/2000/svg" xml:space="preserve" width="3.35954in" height="3.90833in" version="1.1" style="shape-rendering:geometricPrecision; text-rendering:geometricPrecision; image-rendering:optimizeQuality; fill-rule:evenodd; clip-rule:evenodd"
viewBox="0 0 500.52 582.28"
 xmlns:xlink="http://www.w3.org/1999/xlink">
 <defs>
  <style type="text/css">
   <![CDATA[
    .fil5 {fill:none}
    .fil0 {fill:#15ABFF}
    .fil2 {fill:#AEDEFC}
    .fil1 {fill:white}
    .fil3 {fill:#AEDEFC;fill-rule:nonzero}
    .fil4 {fill:white;fill-rule:nonzero}
   ]]>
  </style>
 </defs>
 <g id="Layer_x0020_1">
  <metadata id="CorelCorpID_0Corel-Layer"/>
  <rect class="fil0" x="-0" width="500.52" height="582.28" rx="23.48" ry="14.62"/>
  <polygon class="fil1" points="119.05,125.81 119.05,278.31 119.05,278.31 146.77,261.72 146.76,230.73 211.12,267.95 211.12,231.4 150.34,196.35 150.38,175.67 251.63,234.08 251.64,202.26 "/>
  <polygon class="fil2" points="262.17,201.93 262.19,260.74 262.23,296.42 294.32,279.02 360.13,241.48 360.13,260.94 271.89,311.57 262.14,354.1 394.93,278.33 394.9,201.78 394.89,183.27 368.41,198.5 294.45,241.04 294.45,220.48 385.19,168.74 394.94,126.22 "/>
  <polygon class="fil2" points="153.68,131.2 256.98,72.27 360.29,131.84 388.13,115.74 256.98,40.27 126.14,115.35 "/>
  <polygon class="fil1" points="176.52,144.39 202.36,159.29 256.98,128.11 311.63,159.62 337.4,144.94 256.95,98.52 "/>
  <polygon class="fil2" points="256.98,153.49 289.08,172.44 256.97,190.76 224.36,171.96 "/>
  <g id="_1418227228592">
   <path class="fil3" d="M92.23 451.18l-10.96 0 0 -56.77 -11.53 0 0 -10.96 34.14 0 0 10.96 -11.65 0 0 56.77zm68.75 -0.24l-10.96 0 0 -28.41 -12.37 0 0 28.41 -10.96 0 0 -67.73 10.96 0 0 28.41 12.37 0 0 -28.41 10.96 0 0 67.73zm56.95 0l-34.14 0 0 -67.73 34.14 0 0 10.96 -23.18 0 0 17.45 14.03 0 0 10.91 -14.03 0 0 17.45 23.18 0 0 10.96z"/>
   <path class="fil4" d="M251.69 450.93l-10.96 0 0 -67.73 34.14 0 0 10.96 -23.18 0 0 17.17 14.03 0 0 10.96 -14.03 0 0 28.63zm80.27 0.24l-34.28 0 0 -67.73 10.96 0 0 57.01 12.37 0 0 -57.01 10.96 0 0 67.73zm56.95 -0.24l-34.14 0 0 -67.73 10.96 0 0 56.77 23.18 0 0 10.96zm56.95 0l-34.14 0 0 -67.73 10.96 0 0 56.77 23.18 0 0 10.96z"/>
  </g>
  <g id="_1418227231824">
   <path class="fil4" d="M100.33 535.83l-25.97 0 0 -17.21 8.34 0 0 7.39 9.31 0 0 -14.95 -17.65 0 0 -36.15 25.97 0 0 17.21 -8.33 0 0 -7.39 -9.31 0 0 16.48 17.64 0 0 34.63zm31.71 -0.09l-8.34 0 0 -51.11 -8.77 0 0 -9.87 25.97 0 0 9.87 -8.87 0 0 51.11zm49.56 -0.22l-8.34 0 0 -25.58 -9.41 0 0 25.58 -8.34 0 0 -60.97 26.08 0 0 60.97zm-8.34 -35.4l0 -15.71 -9.41 0 0 15.71 9.41 0zm49.03 35.4l-26.08 0 0 -60.97 26.08 0 0 19.43 -8.34 0 0 -9.56 -9.41 0 0 41.24 9.41 0 0 -9.78 8.34 0 0 19.64zm40.58 0l-8.33 0 0 -21.48 -3.36 -3.96 -5.95 0 0 25.44 -8.34 0 0 -60.97 8.34 0 0 25.58 5.95 0 3.36 -4.01 0 -21.57 8.33 0 0 25.66 -4.11 4.87 4.11 4.87 0 25.58z"/>
   <path class="fil3" d="M294.57 535.74l-8.34 0 0 -51.11 -8.77 0 0 -9.87 25.97 0 0 9.87 -8.87 0 0 51.11zm49.45 -0.22l-25.97 0 0 -60.97 25.97 0 0 9.87 -17.64 0 0 15.71 10.68 0 0 9.82 -10.68 0 0 15.71 17.64 0 0 9.87zm40.69 0l-8.34 0 0 -25.58 -9.41 0 0 25.58 -8.34 0 0 -60.97 26.08 0 0 60.97zm-8.34 -35.4l0 -15.71 -9.41 0 0 15.71 9.41 0zm22.94 35.44l0 -61.02 17.65 0 3.93 4.79 4.4 -4.79 17.69 0 0 60.97 -8.34 0 0 -51.11 -5.87 0 -3.47 4.1 -0.06 47.01 -8.34 0 0.07 -46.92 -3.47 -4.09 -5.84 0 0 51.06 -8.34 0z"/>
  </g>
  <polygon class="fil5" points="226.33,382.41 226.33,354.95 292.74,354.95 292.74,382.41 "/>
 </g>
</svg>
