<?xml version="1.0" encoding="UTF-8"?>
<!DOCTYPE svg PUBLIC "-//W3C//DTD SVG 1.1//EN" "http://www.w3.org/Graphics/SVG/1.1/DTD/svg11.dtd">
<!-- Creator: CorelDRAW 2019 (64-Bit) -->
<svg xmlns="http://www.w3.org/2000/svg" xml:space="preserve" width="4.57805in" height="2.11075in" version="1.1" style="shape-rendering:geometricPrecision; text-rendering:geometricPrecision; image-rendering:optimizeQuality; fill-rule:evenodd; clip-rule:evenodd"
viewBox="0 0 1867.55 861.05"
 xmlns:xlink="http://www.w3.org/1999/xlink">
 <defs>
  <style type="text/css">
   <![CDATA[
    .fil2 {fill:none}
    .fil0 {fill:#4D4D4D}
    .fil1 {fill:#CCCCCC}
    .fil4 {fill:#4D4D4D;fill-rule:nonzero}
    .fil3 {fill:#CCCCCC;fill-rule:nonzero}
   ]]>
  </style>
 </defs>
 <g id="Layer_x0020_1">
  <metadata id="CorelCorpID_0Corel-Layer"/>
  <polygon class="fil0" points="-0,234.7 -0,653.11 -0,653.11 76.07,607.59 76.04,522.56 252.63,624.68 252.63,524.4 85.85,428.24 85.98,371.51 363.78,531.76 363.78,444.46 "/>
  <polygon class="fil1" points="392.7,443.56 392.74,604.9 392.85,702.79 480.89,655.06 661.46,552.06 661.46,605.46 419.35,744.38 392.61,861.05 756.95,653.16 756.85,443.14 756.82,392.36 684.18,434.14 481.26,550.87 481.26,494.45 730.22,352.49 756.96,235.82 "/>
  <polygon class="fil1" points="95.02,249.48 378.45,87.81 661.91,251.25 738.29,207.09 378.44,0 19.45,206 "/>
  <polygon class="fil0" points="157.69,285.67 228.57,326.56 378.45,241 528.38,327.46 599.1,287.19 378.37,159.84 "/>
  <polygon class="fil1" points="378.45,310.65 466.51,362.63 378.41,412.91 288.96,361.31 "/>
  <polygon class="fil2" points="758.07,381.46 833.41,381.46 833.41,563.67 758.07,563.67 "/>
  <g id="_1418450855664">
   <path class="fil3" d="M897.3 421.69l-30.07 0 0 -155.76 -31.62 0 0 -30.07 93.67 0 0 30.07 -31.98 0 0 155.76zm188.62 -0.67l-30.07 0 0 -77.94 -33.93 0 0 77.94 -30.07 0 0 -185.82 30.07 0 0 77.94 33.93 0 0 -77.94 30.07 0 0 185.82zm156.25 0l-93.67 0 0 -185.82 93.67 0 0 30.07 -63.6 0 0 47.88 38.5 0 0 29.94 -38.5 0 0 47.88 63.6 0 0 30.07z"/>
   <path class="fil4" d="M1334.81 421.03l-30.07 0 0 -185.82 93.67 0 0 30.07 -63.6 0 0 47.12 38.5 0 0 30.07 -38.5 0 0 78.57zm220.24 0.67l-94.07 0 0 -185.82 30.07 0 0 156.42 33.93 0 0 -156.42 30.07 0 0 185.82zm156.25 -0.67l-93.67 0 0 -185.82 30.07 0 0 155.76 63.6 0 0 30.07zm156.25 0l-93.67 0 0 -185.82 30.07 0 0 155.76 63.6 0 0 30.07z"/>
  </g>
  <g id="_1418450857360">
   <path class="fil4" d="M919.5 653.95l-71.27 0 0 -47.22 22.88 0 0 20.27 25.55 0 0 -41.02 -48.42 0 0 -99.2 71.27 0 0 47.22 -22.84 0 0 -20.27 -25.55 0 0 45.22 48.39 0 0 95zm87.01 -0.24l-22.88 0 0 -140.22 -24.06 0 0 -27.07 71.27 0 0 27.07 -24.33 0 0 140.22zm135.97 -0.6l-22.88 0 0 -70.17 -25.82 0 0 70.17 -22.88 0 0 -167.29 71.57 0 0 167.29zm-22.88 -97.12l0 -43.1 -25.82 0 0 43.1 25.82 0zm134.52 97.12l-71.57 0 0 -167.29 71.57 0 0 53.3 -22.88 0 0 -26.23 -25.82 0 0 113.15 25.82 0 0 -26.83 22.88 0 0 53.9zm111.34 0l-22.84 0 0 -58.94 -9.23 -10.88 -16.32 0 0 69.81 -22.88 0 0 -167.29 22.88 0 0 70.17 16.32 0 9.23 -10.99 0 -59.18 22.84 0 0 70.41 -11.29 13.35 11.29 13.35 0 70.17z"/>
   <path class="fil3" d="M1452.45 653.71l-22.87 0 0 -140.22 -24.06 0 0 -27.07 71.27 0 0 27.07 -24.33 0 0 140.22zm135.67 -0.6l-71.27 0 0 -167.29 71.27 0 0 27.07 -48.39 0 0 43.1 29.3 0 0 26.95 -29.3 0 0 43.1 48.39 0 0 27.07zm111.64 0l-22.88 0 0 -70.17 -25.82 0 0 70.17 -22.88 0 0 -167.29 71.57 0 0 167.29zm-22.88 -97.12l0 -43.1 -25.82 0 0 43.1 25.82 0zm62.95 97.24l0 -167.41 48.42 0 10.78 13.16 12.06 -13.16 48.53 0 0 167.29 -22.88 0 0 -140.22 -16.12 0 -9.53 11.23 -0.17 128.99 -22.88 0 0.2 -128.75 -9.53 -11.24 -16.02 0 0 140.1 -22.88 0z"/>
  </g>
 </g>
</svg>
