<?xml version="1.0" encoding="UTF-8"?>
<!DOCTYPE svg PUBLIC "-//W3C//DTD SVG 1.1//EN" "http://www.w3.org/Graphics/SVG/1.1/DTD/svg11.dtd">
<!-- Creator: CorelDRAW 2019 (64-Bit) -->
<svg xmlns="http://www.w3.org/2000/svg" xml:space="preserve" width="5.55902in" height="2.69237in" version="1.1" style="shape-rendering:geometricPrecision; text-rendering:geometricPrecision; image-rendering:optimizeQuality; fill-rule:evenodd; clip-rule:evenodd"
viewBox="0 0 1119.06 541.99"
 xmlns:xlink="http://www.w3.org/1999/xlink">
 <defs>
  <style type="text/css">
   <![CDATA[
    .str0 {stroke:black;stroke-width:1.4;stroke-miterlimit:2.61313}
    .fil3 {fill:none}
    .fil0 {fill:black}
    .fil2 {fill:#CCCCCC}
    .fil1 {fill:white}
    .fil4 {fill:#CCCCCC;fill-rule:nonzero}
    .fil5 {fill:white;fill-rule:nonzero}
   ]]>
  </style>
 </defs>
 <g id="Layer_x0020_1">
  <metadata id="CorelCorpID_0Corel-Layer"/>
  <rect class="fil0 str0" x="0.7" y="0.7" width="1117.66" height="540.59" rx="74.18" ry="25.86"/>
  <polygon class="fil1" points="98.74,179.9 98.74,386.37 98.74,386.37 136.28,363.91 136.26,321.95 223.41,372.34 223.41,322.86 141.1,275.4 141.16,247.41 278.25,326.49 278.26,283.41 "/>
  <polygon class="fil2" points="292.52,282.96 292.55,362.58 292.6,410.89 336.04,387.33 425.15,336.5 425.15,362.86 305.68,431.41 292.48,488.98 472.27,386.4 472.22,282.75 472.21,257.7 436.36,278.32 336.23,335.92 336.23,308.08 459.08,238.02 472.28,180.45 "/>
  <polygon class="fil2" points="145.63,187.19 285.49,107.41 425.37,188.06 463.07,166.27 285.49,64.08 108.34,165.73 "/>
  <polygon class="fil1" points="176.56,205.05 211.53,225.23 285.5,183 359.48,225.67 394.38,205.8 285.45,142.95 "/>
  <polygon class="fil2" points="285.49,217.37 328.95,243.03 285.47,267.84 241.33,242.38 "/>
  <polygon class="fil3" points="472.83,252.32 510,252.32 510,342.24 472.83,342.24 "/>
  <g id="_1418360191248">
   <path class="fil4" d="M541.53 272.17l-14.84 0 0 -76.86 -15.6 0 0 -14.84 46.22 0 0 14.84 -15.78 0 0 76.86zm93.08 -0.33l-14.84 0 0 -38.46 -16.74 0 0 38.46 -14.84 0 0 -91.7 14.84 0 0 38.46 16.74 0 0 -38.46 14.84 0 0 91.7zm77.1 0l-46.22 0 0 -91.7 46.22 0 0 14.84 -31.38 0 0 23.63 19 0 0 14.77 -19 0 0 23.63 31.38 0 0 14.84z"/>
   <path class="fil5" d="M757.43 271.84l-14.84 0 0 -91.7 46.22 0 0 14.84 -31.38 0 0 23.25 19 0 0 14.84 -19 0 0 38.77zm108.68 0.33l-46.42 0 0 -91.7 14.84 0 0 77.19 16.74 0 0 -77.19 14.84 0 0 91.7zm77.1 -0.33l-46.22 0 0 -91.7 14.84 0 0 76.86 31.38 0 0 14.84zm77.1 0l-46.22 0 0 -91.7 14.84 0 0 76.86 31.38 0 0 14.84z"/>
  </g>
  <g id="_1418360191536">
   <path class="fil5" d="M552.49 386.78l-35.17 0 0 -23.3 11.29 0 0 10 12.61 0 0 -20.24 -23.9 0 0 -48.95 35.17 0 0 23.3 -11.27 0 0 -10 -12.61 0 0 22.32 23.88 0 0 46.88zm42.94 -0.12l-11.29 0 0 -69.2 -11.87 0 0 -13.36 35.17 0 0 13.36 -12.01 0 0 69.2zm67.1 -0.3l-11.29 0 0 -34.63 -12.74 0 0 34.63 -11.29 0 0 -82.55 35.32 0 0 82.55zm-11.29 -47.93l0 -21.27 -12.74 0 0 21.27 12.74 0zm66.38 47.93l-35.32 0 0 -82.55 35.32 0 0 26.3 -11.29 0 0 -12.94 -12.74 0 0 55.84 12.74 0 0 -13.24 11.29 0 0 26.6zm54.94 0l-11.27 0 0 -29.08 -4.55 -5.37 -8.05 0 0 34.45 -11.29 0 0 -82.55 11.29 0 0 34.63 8.05 0 4.55 -5.43 0 -29.2 11.27 0 0 34.75 -5.57 6.59 5.57 6.59 0 34.63z"/>
   <path class="fil4" d="M815.49 386.67l-11.29 0 0 -69.2 -11.87 0 0 -13.36 35.17 0 0 13.36 -12.01 0 0 69.2zm66.95 -0.3l-35.17 0 0 -82.55 35.17 0 0 13.36 -23.88 0 0 21.27 14.46 0 0 13.3 -14.46 0 0 21.27 23.88 0 0 13.36zm55.09 0l-11.29 0 0 -34.63 -12.74 0 0 34.63 -11.29 0 0 -82.55 35.32 0 0 82.55zm-11.29 -47.93l0 -21.27 -12.74 0 0 21.27 12.74 0zm31.06 47.99l0 -82.61 23.9 0 5.32 6.49 5.95 -6.49 23.95 0 0 82.55 -11.29 0 0 -69.2 -7.95 0 -4.7 5.54 -0.08 63.65 -11.29 0 0.1 -63.53 -4.7 -5.54 -7.9 0 0 69.14 -11.29 0z"/>
  </g>
 </g>
</svg>
