<?xml version="1.0" encoding="UTF-8"?>
<!DOCTYPE svg PUBLIC "-//W3C//DTD SVG 1.1//EN" "http://www.w3.org/Graphics/SVG/1.1/DTD/svg11.dtd">
<!-- Creator: CorelDRAW 2019 (64-Bit) -->
<svg xmlns="http://www.w3.org/2000/svg" xml:space="preserve" width="2.52452in" height="3.32628in" version="1.1" style="shape-rendering:geometricPrecision; text-rendering:geometricPrecision; image-rendering:optimizeQuality; fill-rule:evenodd; clip-rule:evenodd"
viewBox="0 0 453.59 597.65"
 xmlns:xlink="http://www.w3.org/1999/xlink">
 <defs>
  <style type="text/css">
   <![CDATA[
    .fil4 {fill:none}
    .fil0 {fill:#15ABFF}
    .fil1 {fill:#AEDEFC}
    .fil3 {fill:#15ABFF;fill-rule:nonzero}
    .fil2 {fill:#AEDEFC;fill-rule:nonzero}
   ]]>
  </style>
 </defs>
 <g id="Layer_x0020_1">
  <metadata id="CorelCorpID_0Corel-Layer"/>
  <polygon class="fil0" points="59.45,103.17 59.45,287.08 59.45,287.08 92.89,267.07 92.88,229.7 170.5,274.59 170.5,230.51 97.19,188.24 97.24,163.3 219.35,233.74 219.36,195.37 "/>
  <polygon class="fil1" points="232.07,194.97 232.09,265.89 232.13,308.92 270.83,287.94 350.2,242.66 350.2,266.13 243.78,327.2 232.03,378.48 392.18,287.1 392.13,194.78 392.12,172.46 360.19,190.83 271,242.14 271,217.34 380.43,154.94 392.18,103.66 "/>
  <polygon class="fil1" points="101.22,109.66 225.8,38.6 350.4,110.44 383.97,91.03 225.8,0 68,90.55 "/>
  <polygon class="fil0" points="128.77,125.57 159.92,143.54 225.81,105.93 291.71,143.94 322.79,126.24 225.77,70.26 "/>
  <polygon class="fil1" points="225.8,136.55 264.51,159.4 225.78,181.5 186.47,158.82 "/>
  <g id="_1418227202128">
   <path class="fil2" d="M27.12 495.56l-13.22 0 0 -68.46 -13.9 0 0 -13.22 41.17 0 0 13.22 -14.06 0 0 68.46zm82.91 -0.29l-13.22 0 0 -34.26 -14.92 0 0 34.26 -13.22 0 0 -81.68 13.22 0 0 34.26 14.92 0 0 -34.26 13.22 0 0 81.68zm68.68 0l-41.17 0 0 -81.68 41.17 0 0 13.22 -27.96 0 0 21.04 16.93 0 0 13.16 -16.93 0 0 21.04 27.96 0 0 13.22z"/>
   <path class="fil3" d="M219.43 495.27l-13.22 0 0 -81.68 41.17 0 0 13.22 -27.96 0 0 20.71 16.93 0 0 13.22 -16.93 0 0 34.53zm96.81 0.29l-41.35 0 0 -81.68 13.22 0 0 68.76 14.92 0 0 -68.76 13.22 0 0 81.68zm68.68 -0.29l-41.17 0 0 -81.68 13.22 0 0 68.46 27.96 0 0 13.22zm68.68 0l-41.17 0 0 -81.68 13.22 0 0 68.46 27.96 0 0 13.22z"/>
  </g>
  <g id="_1418227216304">
   <path class="fil3" d="M36.87 597.65l-31.33 0 0 -20.76 10.06 0 0 8.91 11.23 0 0 -18.03 -21.28 0 0 -43.6 31.33 0 0 20.76 -10.04 0 0 -8.91 -11.23 0 0 19.88 21.27 0 0 41.76zm38.24 -0.11l-10.06 0 0 -61.64 -10.58 0 0 -11.9 31.32 0 0 11.9 -10.69 0 0 61.64zm59.77 -0.26l-10.06 0 0 -30.84 -11.35 0 0 30.84 -10.06 0 0 -73.53 31.46 0 0 73.53zm-10.06 -42.69l0 -18.95 -11.35 0 0 18.95 11.35 0zm59.13 42.69l-31.46 0 0 -73.53 31.46 0 0 23.43 -10.06 0 0 -11.53 -11.35 0 0 49.74 11.35 0 0 -11.79 10.06 0 0 23.69zm48.94 0l-10.04 0 0 -25.91 -4.06 -4.78 -7.17 0 0 30.69 -10.06 0 0 -73.53 10.06 0 0 30.84 7.17 0 4.06 -4.83 0 -26.01 10.04 0 0 30.95 -4.96 5.87 4.96 5.87 0 30.84z"/>
   <path class="fil2" d="M271.14 597.55l-10.06 0 0 -61.64 -10.58 0 0 -11.9 31.33 0 0 11.9 -10.69 0 0 61.64zm59.63 -0.26l-31.33 0 0 -73.53 31.33 0 0 11.9 -21.27 0 0 18.95 12.88 0 0 11.85 -12.88 0 0 18.95 21.27 0 0 11.9zm49.07 0l-10.06 0 0 -30.84 -11.35 0 0 30.84 -10.06 0 0 -73.53 31.46 0 0 73.53zm-10.06 -42.69l0 -18.95 -11.35 0 0 18.95 11.35 0zm27.67 42.74l0 -73.59 21.28 0 4.74 5.78 5.3 -5.78 21.33 0 0 73.53 -10.06 0 0 -61.64 -7.09 0 -4.19 4.94 -0.07 56.7 -10.06 0 0.09 -56.59 -4.19 -4.94 -7.04 0 0 61.58 -10.06 0z"/>
  </g>
  <polygon class="fil4" points="188.83,412.63 188.83,379.52 268.93,379.52 268.93,412.63 "/>
 </g>
</svg>
