<?xml version="1.0" encoding="UTF-8"?> <!-- Generator: Adobe Illustrator 24.0.0, SVG Export Plug-In . SVG Version: 6.00 Build 0) --> <svg xmlns="http://www.w3.org/2000/svg" xmlns:xlink="http://www.w3.org/1999/xlink" version="1.1" id="a2593f0c-3437-45bc-bcbc-f89f51f04e57" x="0px" y="0px" viewBox="0 0 400 244.9" style="enable-background:new 0 0 400 244.9;" xml:space="preserve"> <style type="text/css"> .st0{fill:#F4F7FC;enable-background:new ;} .st1{fill:#15ABFF;} .st2{fill:#FFFFFF;} .st3{fill:#3F3D56;} .st4{fill:#2F2E41;} .st5{fill:#A0616A;} .st6{fill:#D0CDE1;} .st7{opacity:0.15;enable-background:new ;} .st8{fill:#FFB9B9;} </style> <title>welcoming</title> <path class="st0" d="M187.8,244.7l-0.5-0.5c0.1-0.1,10-9.8,13.8-28c3.5-16.8,2.3-44.4-23.1-80.6c-10.6-15.2-17.9-29.5-21.5-42.6 c-3-10.7-3.6-20.6-1.9-29.5c3.5-17.6,15.2-25.4,15.3-25.4l0.4,0.6c-0.1,0.1-11.6,7.7-15,25c-3.9,19.9,4,43.9,23.3,71.5 c11.3,16.1,18.8,31.9,22.4,46.9c2.8,12,3.1,23.6,0.9,34.3C197.9,234.8,187.9,244.6,187.8,244.7z"></path> <circle class="st0" cx="163.4" cy="50.5" r="28.2"></circle> <path class="st0" d="M170,76.7c-21.2,0-38.4-17.2-38.4-38.4S148.8,0,170,0c21.2,0,38.4,17.2,38.4,38.4 C208.3,59.5,191.2,76.7,170,76.7z M170,0.7c-20.8,0-37.6,16.8-37.6,37.6c0,20.8,16.8,37.6,37.6,37.6s37.6-16.8,37.6-37.6 c0,0,0,0,0,0C207.6,17.6,190.8,0.8,170,0.7z"></path> <ellipse transform="matrix(0.1602 -0.9871 0.9871 0.1602 47.9675 285.0577)" class="st0" cx="191.5" cy="114.3" rx="23.3" ry="23.3"></ellipse> <circle class="st0" cx="179.6" cy="195.4" r="23.3"></circle> <rect x="192.2" y="41.5" class="st1" width="85.5" height="55.6"></rect> <path class="st0" d="M391.6,244.7h-79.1c0,0-1.6-23.5,7.9-23.8s8.4,10.4,20.3-4.3c11.9-14.7,26.3-13.9,28.2-5.2s-3.6,15.6,6.4,13.5 C385.3,222.8,399.8,228.4,391.6,244.7z"></path> <path class="st2" d="M350.7,244.7l-0.3,0c0.6-15.5,3.9-25.4,6.5-31.1c2.8-6.1,5.6-8.6,5.6-8.6l0.2,0.2c0,0-2.7,2.5-5.5,8.5 C354.6,219.4,351.3,229.3,350.7,244.7z"></path> <path class="st2" d="M379.4,244.8l-0.3-0.1c2-6.6,5.6-12.5,10.4-17.4l0.2,0.2C384.9,232.3,381.3,238.2,379.4,244.8z"></path> <path class="st2" d="M325,244.7l-0.3,0c0.9-5.8-0.1-11.7-2.6-17c-1.1-2.2-2.4-4.2-4.1-6l0.2-0.2c1.7,1.8,3.1,3.9,4.2,6.1 C324.9,232.9,325.8,238.9,325,244.7z"></path> <path class="st3" d="M31.1,244.7l-0.2-0.4c-0.1-0.1-5.5-11.5-2.5-22.8c3-11.3,13.5-18.4,13.6-18.5l0.3-0.2l0.2,0.4 c0.1,0.1,5.5,11.5,2.5,22.8c-3,11.3-13.5,18.4-13.6,18.5L31.1,244.7z M42.1,203.9c-1.8,1.3-10.3,7.9-13,17.8 c-2.7,9.8,1.3,19.8,2.2,21.9c1.8-1.3,10.3-7.9,13-17.8l0,0C47.1,215.9,43.1,205.9,42.1,203.9z"></path> <path class="st1" d="M17,225.9c3,11.3,13.5,18.2,13.5,18.2s5.5-11.3,2.5-22.6c-3-11.3-13.5-18.2-13.5-18.2S14,214.6,17,225.9z"></path> <path class="st3" d="M31.3,244.5l-0.4,0c-0.1,0-12.8-0.8-21.1-8.9c-8.4-8.1-9.5-20.8-9.5-20.9l0-0.4l0.4,0c0.1,0,12.8,0.8,21.1,8.9 c8.4,8.1,9.5,20.8,9.5,20.9L31.3,244.5z M1,215c0.3,2.3,1.9,12.9,9.2,20c7.3,7.1,18,8.5,20.2,8.7c-0.3-2.3-1.9-12.9-9.2-20l0,0 C13.9,216.6,3.3,215.2,1,215z"></path> <path class="st3" d="M40.3,223.4c-8.4,8.1-9.4,20.7-9.4,20.7s12.5-0.7,20.9-8.8c8.4-8.1,9.4-20.7,9.4-20.7S48.6,215.3,40.3,223.4z"></path> <path class="st3" d="M108.3,152.9c-8.4,8.1-9.4,20.7-9.4,20.7s12.5-0.7,20.9-8.8c8.4-8.1,9.4-20.7,9.4-20.7S116.6,144.8,108.3,152.9 z"></path> <circle class="st1" cx="30.7" cy="196" r="5.5"></circle> <path class="st3" d="M96.9,244.4l-0.5-0.5c0.1-0.1,7.9-7.8,10.9-22.2c2.8-13.3,1.8-35.2-18.4-64c-15.5-22.1-21.8-41.4-18.6-57.4 c2.7-14,12.1-20.2,12.2-20.3l0.4,0.6c-0.1,0.1-9.2,6.1-11.9,19.8c-3.1,15.8,3.2,34.9,18.5,56.8c9,12.8,15,25.4,17.8,37.3 c2.3,9.6,2.5,18.8,0.7,27.3C105,236.5,97,244.3,96.9,244.4z"></path> <ellipse class="st1" cx="93.2" cy="87" rx="65.5" ry="11.2"></ellipse> <path class="st3" d="M81.1,94.9c-45.4,0-80.9-6.2-80.9-14.2s35.5-14.2,80.9-14.2S162,72.8,162,80.7S126.4,94.9,81.1,94.9z M81.1,67.3c-43.5,0-80.2,6.2-80.2,13.5c0,7.3,36.7,13.5,80.2,13.5s80.2-6.2,80.2-13.5C161.2,73.4,124.5,67.3,81.1,67.3z"></path> <path class="st4" d="M99.4,25.6c0,0-9.7-2.7-12.6,10.5c-2.9,13.3-0.7,19.9-0.7,19.9l21.7-2.5C107.8,53.6,114,29.6,99.4,25.6z"></path> <path class="st5" d="M84.9,83c0,0-14.2,1.4-11.7,7.2c2.5,5.7,2.5,6.3,2.5,6.3l12.5,22.3l4.1-4.2c0,0-4.6-10-4.6-13.2 S83,92.5,83,92.5l8.3-0.7L84.9,83z"></path> <path class="st5" d="M123.9,89.8l4.7,10.3c0,0,3.5,3.5,7.4,17.7c3.9,14.2,4.7,13.7,4.7,13.7l-5.9,1.2c0,0-6.6-15.4-8.8-16.6 c-2.2-1.2-4.9-12-4.9-12l-7.8-9.8l2.4-5.2L123.9,89.8z"></path> <path class="st4" d="M118.2,78l7.3,13.5c0,0-9.1-4.2-10.5,5.1l-8.3-6.4c0,0-11.5,3.7-18.4,2.4c0,0,2-6.4-5.2-9.3l16.4-2l-0.7-3.5 l1.7-3.4L118.2,78z"></path> <path class="st4" d="M89.3,115.7c0,0-4.6-0.7-3.4,3.4l2.4,8.1c0,0-3,8.3,1.7,6.4c4.7-1.9,7.8-13.3,7.8-13.3s2-8.8,0-8.8 c-2,0-8.4-1.4-7.8,0S89.3,115.7,89.3,115.7z"></path> <path class="st4" d="M140.3,129.2c0,0-5.9-1.5-7.3,0.8c-1.4,2.4-1,10.1-1,10.3s2,1.9,2.7,1.9c0.7,0,4.9,7.6,10.6,4.9 S140.3,129.2,140.3,129.2z"></path> <circle class="st5" cx="97.7" cy="39.7" r="6.6"></circle> <path class="st5" d="M103.1,41c0,0,1.4,7.1,2.5,8.1s-9,2.5-9,2.5s1.5-4.9-0.3-7.4C94.5,41.7,103.1,41,103.1,41z"></path> <path class="st6" d="M120.9,81.2c-1.2,0-4.1-0.5-7.4-1.1c-2.8-0.5-6-1.2-8.4-1.7c-2.6-0.5-4.5-1-4.5-1s-0.7,4.2-2.9,3.7 c-1.9-0.4-7.5-20.2-9.1-25.6c-0.2-0.8,0.1-1.7,0.8-2.1l7.8-4.7l2,0.8c0,0,3.4-2.6,5.3-2.7s5.3-0.6,5.3-0.6s3.9,0.3,4.6,3.2 c0.7,2.9,1,20.8,3.5,24C120.5,76.7,124.1,81.2,120.9,81.2z"></path> <path class="st5" d="M97.2,90.7c0,0,0,6.6,4.4,5.6c4.4-1,0.3-7.1,0.3-7.1L97.2,90.7z"></path> <path class="st5" d="M109.4,91.4c0,0-1.5,7.8-4.7,6.6c-3.2-1.2,0-8.1,0-8.1L109.4,91.4z"></path> <path class="st7" d="M116.5,72.9c0,0-1.7,3.9-3,7.2c-2.8-0.5-6-1.2-8.4-1.7c0.2-0.5,0.4-0.9,0.7-1.3c1.2-1.4,0.5-1.7,0.5-1.7 c-1-2-0.2-4.7-0.2-4.7c-2-5.4,1-12.2,1-12.2L116.5,72.9z"></path> <path class="st6" d="M107.7,58.6c0,0-3,6.8-1,12.2c0,0-0.8,2.7,0.2,4.7c0,0,0.7,0.3-0.5,1.7c-1.2,1.4-2.2,6.1-1.4,7.1 s-1.2,2.9-0.7,3.9c0.5,1-0.8,2.4-0.8,2.4s5.1,1,5.9,2.5c0,0,1-1.2,0.5-2.5c-0.5-1.4-0.2-1.9,0.3-2.7c0.5-0.8,2-2.7,2.2-3.5 s4.6-11.3,4.6-11.3l-2.1-19.1L107.7,58.6z"></path> <path class="st6" d="M90.1,53.8l-0.3,0.1c-0.9,0.2-1.6,1-1.6,1.9c0,1.7,0.1,4.7,0.5,8.9c0.7,6.8,3,16.9,3.5,17.9 c0.8,1.8,1.7,3.5,2.7,5.2c1.5,2.5,1.9,1.7,1.5,2.9c-0.2,0.7,0,1.4,0.5,1.9c0,0,3-3.4,6.1-1.5c0.2-0.5,0.3-1,0.3-1.5 c0-0.8,0.5-1.7-0.3-2.2c-0.8-0.5,0.5-2.7-0.8-3.9c-1.4-1.2-1.5-1-1.4-2.2c0.1-0.8,0-1.6-0.3-2.4L90.1,53.8z"></path> <path class="st4" d="M100.2,31.2c0,0-2.7,7.2-9.4,10.2L89.7,35L100.2,31.2z"></path> <ellipse class="st5" cx="104.2" cy="37.1" rx="0.9" ry="1.8"></ellipse> <circle class="st4" cx="295.2" cy="118.7" r="11.8"></circle> <circle class="st4" cx="293.6" cy="103.2" r="3.9"></circle> <path class="st4" d="M289.2,105.6c-1.3-1.6-1.1-3.8,0.3-5.2c-0.1,0.1-0.2,0.1-0.3,0.2c-1.7,1.3-2,3.8-0.6,5.5c1.3,1.7,3.8,2,5.5,0.6 c0.1-0.1,0.2-0.2,0.3-0.3C292.7,107.6,290.5,107.2,289.2,105.6z"></path> <path class="st8" d="M275.9,161.4l-6.8,5.8c0,0-10.2,3.2-5.3,6.6c5,3.4,7.9-4.2,7.9-4.2l8.4-5.3L275.9,161.4z"></path> <path class="st4" d="M290.6,136.2l-0.8-0.5c0,0-3.2,0-3.7,3.2c-0.5,3.2-2.1,9.7-2.1,9.7s-5.3,3.2-4.7,8.9l-5.5,4.7 c0,0,6.6,2.1,5.3,3.9l9.7-8.9l0.3-17.1L290.6,136.2z"></path> <circle class="st8" cx="293.7" cy="123.3" r="6.8"></circle> <path class="st8" d="M291.6,128c0,0,4.2,4.7,1.6,7.4c-2.6,2.6-3.4,15.5-3.4,15.5l11.6-17.6c0,0-3.2-6.3-2.9-8.4L291.6,128z"></path> <path class="st4" d="M290.8,146.4c0,0,6.3-13.8,9.7-14.8l8.9,2.2c0,0-7.1,24.4-6.3,26.8s5.3,5.8,3.7,26.5c0,0,20.2,37,15.2,43.3 s-23.6,11-23.9,9.2c-0.3-1.8-8.7-30.2-7.4-38.9c0,0,0,37.6-1.6,38.4c-1.6,0.8-26.8,6.6-26,2.1s13.4-53.6,13.4-53.6l9.7-30.5l0.3-4.5 c0,0-4.2-2.9-1.1-9.5c3.2-6.6,4.2-7.6,4.2-7.6l3.8-0.7C293.6,134.9,290.1,144.6,290.8,146.4z"></path> <path class="st8" d="M305,166.1l-3.2,6.8c0,0-8.1,8.7-2.4,8.9c5.8,0.3,6.3-7.9,6.3-7.9l4.2-7.9H305z"></path> <path class="st4" d="M306.1,134h3.4c0,0,1.1-1.6,2.1,5c1.1,6.6,0.5,16.6,0.5,16.6l-1.6,13.1c0,0-5.5-2.1-6.8-1.6 c-1.3,0.5,0-0.3,0-0.3l2.4-8.9l-2.9-12.9L306.1,134z"></path> <path class="st4" d="M293,113.2c-4.5,1.2-7.5,4.3-6.8,6.9c0.3,1.2,1.3,2,2.8,2.5l1.2-1.5l0.1,1.9c0.2,0,0.4,0.1,0.6,0.1l1.6-3.3 l0.9,3.3c0.7-0.1,1.5-0.2,2.2-0.4c4.5-1.2,7.5-4.3,6.8-6.9C301.7,113.1,297.5,112,293,113.2z"></path> <ellipse class="st8" cx="300.7" cy="121.8" rx="0.8" ry="1.3"></ellipse> <ellipse class="st4" cx="274" cy="242" rx="6.2" ry="2.7"></ellipse> <ellipse transform="matrix(0.9303 -0.3667 0.3667 0.9303 -66.6964 129.0073)" class="st4" cx="306.2" cy="240" rx="8.3" ry="3.6"></ellipse> <path class="st3" d="M265.8,170.3c-0.1,0-10.9-2.8-15-13.7c-4.7-12.4,0.8-30,16.3-52.1c19-27,20-36.1,17.5-39 c-3.1-3.6-13,1.3-13.1,1.3l-0.3-0.6c0.4-0.2,10.4-5.2,13.9-1.2c3.8,4.4-2,17.9-17.5,39.9c-8.4,12-13.9,22.8-16.3,32 c-2,7.5-1.9,14,0.1,19.4c4,10.5,14.4,13.2,14.5,13.2L265.8,170.3z"></path> <path class="st3" d="M271.8,88.4h-91.3V28.7h91.3V88.4z M181.2,87.6h89.8V29.5h-89.8V87.6z"></path> <circle class="st3" cx="218.5" cy="62.6" r="3.8"></circle> <circle class="st3" cx="251.2" cy="62.6" r="3.8"></circle> <path class="st3" d="M251.2,78.2c0,1.1-7.4,4.4-16.5,4.4s-16.5-3.3-16.5-4.4s7.4,0.3,16.5,0.3S251.2,77.1,251.2,78.2z"></path> <rect y="244.2" class="st3" width="400" height="0.7"></rect> </svg> 