<svg viewBox="76.776 31.569 332.73 378.48" width="332.73" height="378.48" xmlns="http://www.w3.org/2000/svg">
  <defs></defs>
  <polygon class="fil0" points="59.45,103.17 59.45,287.08 59.45,287.08 92.89,267.07 92.88,229.7 170.5,274.59 170.5,230.51 97.19,188.24 97.24,163.3 219.35,233.74 219.36,195.37 " style="fill: rgb(21, 171, 255);" transform="matrix(1, 0, 0, 1, 17.326462, 31.56905)"></polygon>
  <polygon class="fil1" points="232.07,194.97 232.09,265.89 232.13,308.92 270.83,287.94 350.2,242.66 350.2,266.13 243.78,327.2 232.03,378.48 392.18,287.1 392.13,194.78 392.12,172.46 360.19,190.83 271,242.14 271,217.34 380.43,154.94 392.18,103.66 " style="fill: rgb(174, 222, 252);" transform="matrix(1, 0, 0, 1, 17.326462, 31.56905)"></polygon>
  <polygon class="fil1" points="101.22,109.66 225.8,38.6 350.4,110.44 383.97,91.03 225.8,0 68,90.55 " style="fill: rgb(174, 222, 252);" transform="matrix(1, 0, 0, 1, 17.326462, 31.56905)"></polygon>
  <polygon class="fil0" points="128.77,125.57 159.92,143.54 225.81,105.93 291.71,143.94 322.79,126.24 225.77,70.26 " style="fill: rgb(21, 171, 255);" transform="matrix(1, 0, 0, 1, 17.326462, 31.56905)"></polygon>
  <polygon class="fil1" points="225.8,136.55 264.51,159.4 225.78,181.5 186.47,158.82 " style="fill: rgb(174, 222, 252);" transform="matrix(1, 0, 0, 1, 17.326462, 31.56905)"></polygon>
</svg>