<?xml version="1.0" encoding="UTF-8"?>
<!DOCTYPE svg PUBLIC "-//W3C//DTD SVG 1.1//EN" "http://www.w3.org/Graphics/SVG/1.1/DTD/svg11.dtd">
<!-- Creator: CorelDRAW 2019 (64-Bit) -->
<svg xmlns="http://www.w3.org/2000/svg" xml:space="preserve" width="10.0583in" height="5.36041in" version="1.1" style="shape-rendering:geometricPrecision; text-rendering:geometricPrecision; image-rendering:optimizeQuality; fill-rule:evenodd; clip-rule:evenodd"
viewBox="0 0 10280.7 5478.94"
 xmlns:xlink="http://www.w3.org/1999/xlink">
 <defs>
  <style type="text/css">
   <![CDATA[
    .fil3 {fill:none}
    .fil0 {fill:#15ABFF}
    .fil2 {fill:#AEDEFC}
    .fil1 {fill:white}
    .fil4 {fill:#AEDEFC;fill-rule:nonzero}
    .fil5 {fill:white;fill-rule:nonzero}
   ]]>
  </style>
 </defs>
 <g id="Layer_x0020_1">
  <metadata id="CorelCorpID_0Corel-Layer"/>
  <rect class="fil0" x="0" y="0" width="10280.7" height="5478.94" rx="656.58" ry="508.97"/>
  <polygon class="fil1" points="800.48,1904.76 800.48,3785.9 800.48,3785.9 1142.5,3581.28 1142.35,3198.95 1936.32,3658.1 1936.32,3207.24 1186.48,2774.91 1187.03,2519.84 2436.02,3240.3 2436.05,2847.82 "/>
  <polygon class="fil2" points="2566.04,2843.76 2566.25,3569.14 2566.73,4009.28 2962.55,3794.68 3774.42,3331.57 3774.42,3571.67 2685.87,4196.25 2565.64,4720.81 4203.72,3786.16 4203.25,2841.86 4203.14,2613.56 3876.53,2801.44 2964.23,3326.23 2964.23,3072.59 4083.53,2434.33 4203.76,1909.76 "/>
  <polygon class="fil2" points="1227.68,1971.21 2501.97,1244.32 3776.41,1979.13 4119.83,1780.59 2501.94,849.53 887.94,1775.72 "/>
  <polygon class="fil1" points="1509.47,2133.91 1828.15,2317.75 2502.01,1933.06 3176.06,2321.77 3494.05,2140.74 2501.63,1568.15 "/>
  <polygon class="fil2" points="2501.98,2246.21 2897.92,2479.93 2501.8,2705.96 2099.63,2474 "/>
  <rect class="fil3" x="4208.76" y="2564.56" width="338.72" height="819.24"/>
  <g id="_1418225409728">
   <path class="fil4" d="M4909.55 2745.46l-135.18 0 0 -700.28 -142.17 0 0 -135.18 421.13 0 0 135.18 -143.77 0 0 700.28zm848.05 -2.99l-135.18 0 0 -350.44 -152.56 0 0 350.44 -135.18 0 0 -835.46 135.18 0 0 350.44 152.56 0 0 -350.44 135.18 0 0 835.46zm702.48 0l-421.13 0 0 -835.46 421.13 0 0 135.18 -285.94 0 0 215.26 173.12 0 0 134.58 -173.12 0 0 215.26 285.94 0 0 135.18z"/>
   <path class="fil5" d="M6876.61 2742.46l-135.18 0 0 -835.46 421.13 0 0 135.18 -285.94 0 0 211.86 173.12 0 0 135.18 -173.12 0 0 353.24zm990.22 2.99l-422.92 0 0 -835.46 135.18 0 0 703.28 152.56 0 0 -703.28 135.18 0 0 835.46zm702.48 -2.99l-421.13 0 0 -835.46 135.18 0 0 700.28 285.94 0 0 135.18zm702.48 0l-421.13 0 0 -835.46 135.18 0 0 700.28 285.94 0 0 135.18z"/>
  </g>
  <g id="_1418225410688">
   <path class="fil5" d="M5009.36 3789.68l-320.41 0 0 -212.31 102.85 0 0 91.14 114.85 0 0 -184.44 -217.71 0 0 -446 320.41 0 0 212.31 -102.7 0 0 -91.14 -114.85 0 0 203.32 217.56 0 0 427.13zm391.18 -1.08l-102.85 0 0 -630.44 -108.17 0 0 -121.7 320.41 0 0 121.7 -109.39 0 0 630.44zm611.32 -2.7l-102.85 0 0 -315.49 -116.07 0 0 315.49 -102.85 0 0 -752.15 321.78 0 0 752.15zm-102.85 -436.65l0 -193.79 -116.07 0 0 193.79 116.07 0zm604.78 436.65l-321.78 0 0 -752.15 321.78 0 0 239.63 -102.85 0 0 -117.93 -116.07 0 0 508.74 116.07 0 0 -120.62 102.85 0 0 242.32zm500.56 0l-102.7 0 0 -264.98 -41.48 -48.9 -73.38 0 0 313.87 -102.85 0 0 -752.15 102.85 0 0 315.49 73.38 0 41.48 -49.44 0 -266.05 102.7 0 0 316.57 -50.74 60.04 50.74 60.04 0 315.49z"/>
   <path class="fil4" d="M7405.54 3788.6l-102.85 0 0 -630.44 -108.17 0 0 -121.7 320.41 0 0 121.7 -109.38 0 0 630.44zm609.95 -2.7l-320.41 0 0 -752.15 320.41 0 0 121.7 -217.55 0 0 193.79 131.72 0 0 121.16 -131.72 0 0 193.79 217.55 0 0 121.7zm501.93 0l-102.85 0 0 -315.49 -116.07 0 0 315.49 -102.85 0 0 -752.15 321.78 0 0 752.15zm-102.85 -436.65l0 -193.79 -116.07 0 0 193.79 116.07 0zm283.01 437.19l0 -752.68 217.71 0 48.47 59.15 54.24 -59.15 218.17 0 0 752.15 -102.85 0 0 -630.44 -72.47 0 -42.84 50.51 -0.76 579.93 -102.85 0 0.91 -578.85 -42.84 -50.51 -72.01 0 0 629.9 -102.85 0z"/>
  </g>
 </g>
</svg>
